<?xml version="1.0" encoding="utf-8"?>
<!-- Generator: Adobe Illustrator 28.2.0, SVG Export Plug-In . SVG Version: 6.00 Build 0)  -->
<svg version="1.1" id="Layer_2_00000084528843485277880190000002349648946228571559_"
	 xmlns="http://www.w3.org/2000/svg" xmlns:xlink="http://www.w3.org/1999/xlink" x="0px" y="0px" viewBox="0 0 55.3 55.2"
	 style="enable-background:new 0 0 55.3 55.2;" xml:space="preserve">
<style type="text/css">
	.st0{fill:#00A9A5;}
</style>
<g>
	<path class="st0" d="M14.5,1.2h26.3c7.3,0,13.3,5.9,13.3,13.3v26.3c0,7.3-5.9,13.3-13.3,13.3H14.5C7.2,54,1.2,48.1,1.2,40.7V14.4
		C1.2,7.1,7.2,1.2,14.5,1.2z"/>
	<g>
		<path d="M34.6,41.9h-14c-0.3,0-0.6-0.1-0.9-0.1c-3.2-0.7-5.3-2.7-6.2-5.9c-0.1-0.4-0.2-0.8-0.2-1.3c0-4.7,0-9.3,0-14
			c0-0.1,0-0.2,0.1-0.3c0.2-0.7,0.3-1.5,0.6-2.2c1.4-3.1,3.9-4.7,7.3-4.8c4.2-0.1,8.5,0,12.7,0c1.7,0,3.2,0.4,4.5,1.4
			c2.3,1.6,3.4,3.9,3.4,6.6c0,4.2,0,8.3,0,12.5c0,0.5,0,1.1-0.2,1.6c-0.7,3.2-2.7,5.3-5.9,6.2C35.5,41.8,35,41.8,34.6,41.9
			L34.6,41.9z M27.7,15.8c-2.1,0-4.2,0-6.2,0c-0.7,0-1.3,0.1-1.9,0.3c-2.3,0.8-3.6,2.8-3.6,5.2c0,4.2,0,8.3,0,12.5
			c0,0.6,0.1,1.3,0.3,1.9c0.8,2.3,2.7,3.6,5.2,3.7c4.2,0,8.3,0,12.5,0c0.6,0,1.3-0.1,1.9-0.3c2.3-0.8,3.6-2.7,3.7-5.2
			c0-4.2,0-8.4,0-12.6c0-1.9-0.8-3.4-2.3-4.5c-1-0.7-2.1-1-3.3-1C31.8,15.8,29.7,15.8,27.7,15.8L27.7,15.8z"/>
		<path d="M35,27.6c0,4.1-3.4,7.4-7.4,7.3c-4.1,0-7.4-3.4-7.3-7.4c0-4.1,3.3-7.4,7.4-7.3C31.7,20.2,35,23.6,35,27.6L35,27.6z
			 M27.6,22.8c-2.7,0-4.8,2.2-4.8,4.8s2.2,4.8,4.8,4.8c2.7,0,4.8-2.2,4.8-4.8S30.3,22.8,27.6,22.8z"/>
		<path d="M35.3,21.8c-1,0-1.9-0.8-1.9-1.9c0-1,0.8-1.8,1.8-1.9c1,0,1.9,0.8,1.9,1.9C37.2,20.9,36.3,21.8,35.3,21.8L35.3,21.8z"/>
	</g>
</g>
</svg>
