<?xml version="1.0" encoding="utf-8"?>
<!-- Generator: Adobe Illustrator 28.2.0, SVG Export Plug-In . SVG Version: 6.00 Build 0)  -->
<svg version="1.1" id="Layer_2_00000084528843485277880190000002349648946228571559_"
	 xmlns="http://www.w3.org/2000/svg" xmlns:xlink="http://www.w3.org/1999/xlink" x="0px" y="0px" viewBox="0 0 55.3 55.2"
	 style="enable-background:new 0 0 55.3 55.2;" xml:space="preserve">
<style type="text/css">
	.st0{fill:#00A9A5;}
</style>
<g>
	<path class="st0" d="M14.5,1.2h26.3c7.3,0,13.3,5.9,13.3,13.3v26.3c0,7.3-5.9,13.3-13.3,13.3H14.5C7.2,54,1.2,48.1,1.2,40.7V14.4
		C1.2,7.1,7.2,1.2,14.5,1.2z"/>
	<path d="M30.5,29.5c0,0.2,0,0.4,0,0.5c0,3.9,0,7.8,0,11.6c0,1.1-0.1,1.2-1.2,1.2c-1.4,0-2.8,0-4.2,0c-0.8,0-1-0.2-1-1
		c0-3.9,0-7.9,0-11.8c0-0.1,0-0.3,0-0.5c-0.1,0-0.3,0-0.4,0c-1.1,0-2.2,0-3.2,0c-0.8,0-0.9-0.2-0.9-0.9c0-1.5,0-2.9,0-4.4
		c0-0.8,0.2-1,0.9-1c1.1,0,2.1,0,3.2,0c0.1,0,0.3,0,0.4,0c0-0.2,0-0.3,0-0.5c0-1.4,0-2.8,0.1-4.2c0.3-3.5,3-6.1,6.6-6.2
		c1.5-0.1,3,0,4.5,0c0.5,0,0.7,0.2,0.7,0.7c0,1.5,0,3,0,4.4c0,0.5-0.2,0.7-0.8,0.7c-1,0-2,0-3,0c-1.2,0-1.6,0.5-1.6,1.6
		c0,1.1,0,2.2,0,3.4c0.2,0,0.3,0,0.4,0c1.3,0,2.6,0,3.9,0c0.8,0,1,0.2,1,1c0,1.5,0,3,0,4.4c0,0.7-0.2,0.9-0.9,0.9
		c-1.3,0-2.6,0-3.9,0C30.8,29.5,30.7,29.5,30.5,29.5L30.5,29.5z"/>
</g>
</svg>
