<?xml version="1.0" encoding="utf-8"?>
<!-- Generator: Adobe Illustrator 28.2.0, SVG Export Plug-In . SVG Version: 6.00 Build 0)  -->
<svg version="1.1" id="Layer_2_00000084528843485277880190000002349648946228571559_"
	 xmlns="http://www.w3.org/2000/svg" xmlns:xlink="http://www.w3.org/1999/xlink" x="0px" y="0px" viewBox="0 0 55.3 55.2"
	 style="enable-background:new 0 0 55.3 55.2;" xml:space="preserve">
<style type="text/css">
	.st0{fill:#00A9A5;}
</style>
<g>
	<path class="st0" d="M14.4,1.2h26.3C48.1,1.2,54,7.1,54,14.4v26.3C54,48.1,48.1,54,40.7,54H14.4C7.1,54,1.2,48.1,1.2,40.7V14.4
		C1.2,7.1,7.1,1.2,14.4,1.2z"/>
	<path d="M13.7,41.8c0.7-0.8,1.3-1.5,2-2.3c2.9-3.4,5.8-6.7,8.7-10.1c0.1-0.1,0.1-0.1,0.2-0.2c-3.6-5.2-7.2-10.5-10.9-15.8
		c0.1,0,0.2,0,0.2,0c2.6,0,5.2,0,7.8,0c0.2,0,0.3,0.1,0.4,0.2c2.3,3.3,4.6,6.6,6.9,10c0.1,0.1,0.1,0.2,0.2,0.3
		c0.5-0.5,0.9-1.1,1.4-1.6c2.5-2.9,4.9-5.7,7.4-8.6c0.2-0.2,0.3-0.3,0.6-0.3c0.7,0,1.3,0,2.1,0c-3.5,4-6.9,8-10.4,12
		c0.1,0.1,0.1,0.2,0.2,0.2C34,31,37.7,36.3,41.3,41.6c0.1,0.1,0.1,0.2,0.2,0.3h-8.3c0-0.1-0.1-0.1-0.1-0.2
		c-2.5-3.6-4.9-7.1-7.3-10.7c0-0.1-0.1-0.1-0.1-0.2c-0.1,0.1-0.2,0.2-0.2,0.3c-2,2.3-4,4.6-5.9,6.9c-1.1,1.3-2.2,2.6-3.3,3.9H13.7
		L13.7,41.8z M17,15.2c0.1,0.1,0.1,0.2,0.2,0.3c0.4,0.6,0.9,1.2,1.3,1.8c5.2,7.5,10.5,15,15.7,22.5c0.1,0.2,0.2,0.2,0.5,0.2
		c1,0,2.1,0,3.1,0c0.1,0,0.2,0,0.3,0c-0.3-0.5-0.6-0.9-0.9-1.3C31.8,31,26.4,23.2,21,15.5c-0.1-0.2-0.2-0.3-0.5-0.3
		c-0.9,0-1.9,0-2.8,0C17.5,15.2,17.3,15.2,17,15.2L17,15.2z"/>
</g>
</svg>
