<?xml version="1.0" encoding="utf-8"?>
<!-- Generator: Adobe Illustrator 28.2.0, SVG Export Plug-In . SVG Version: 6.00 Build 0)  -->
<svg version="1.1" id="Layer_2_00000084528843485277880190000002349648946228571559_"
	 xmlns="http://www.w3.org/2000/svg" xmlns:xlink="http://www.w3.org/1999/xlink" x="0px" y="0px" viewBox="0 0 55.3 55.2"
	 style="enable-background:new 0 0 55.3 55.2;" xml:space="preserve">
<style type="text/css">
	.st0{fill:#00A9A5;}
</style>
<g>
	<path class="st0" d="M14.5,1.2h26.3c7.3,0,13.3,5.9,13.3,13.3v26.3c0,7.3-5.9,13.3-13.3,13.3H14.5C7.2,54,1.2,48.1,1.2,40.7V14.4
		C1.2,7.1,7.2,1.2,14.5,1.2z"/>
	<path d="M22.9,45.2c-0.8-0.1-1.6-0.2-2.3-0.3c-4.4-1-7.7-4.8-8.3-9.2c-0.7-5.9,3.3-11.2,9.1-12.2c1.1-0.2,2.3-0.2,3.4,0v5.8
		c-0.3-0.1-0.6-0.1-0.9-0.2c-2.8-0.4-5.5,1.6-5.9,4.3c-0.4,3,1.6,5.6,4.5,6c2.9,0.4,5.9-1.9,5.9-5.3c0-4.2,0-8.4,0-12.5
		c0-3.7,0-7.4,0-11.1c0-0.1,0-0.3,0-0.5h5.7c0.1,0.6,0.1,1.2,0.2,1.8c0.8,3.9,4.3,6.9,8.3,7c0.4,0,0.4,0.1,0.4,0.5
		c0,1.6,0,3.3,0,4.9c0,0.1,0,0.2,0,0.4c-1.6,0-3.2-0.2-4.7-0.8c-1.5-0.5-2.9-1.3-4.2-2.2c0,0.2,0,0.3,0,0.4c0,4.1,0,8.1,0,12.2
		c0,2.2-0.5,4.3-1.8,6.1c-2,3-4.9,4.7-8.5,4.9c-0.1,0-0.2,0-0.4,0.1L22.9,45.2L22.9,45.2z"/>
</g>
</svg>
