<?xml version="1.0" encoding="utf-8"?>
<!-- Generator: Adobe Illustrator 28.2.0, SVG Export Plug-In . SVG Version: 6.00 Build 0)  -->
<svg version="1.1" id="Layer_2_00000084528843485277880190000002349648946228571559_"
	 xmlns="http://www.w3.org/2000/svg" xmlns:xlink="http://www.w3.org/1999/xlink" x="0px" y="0px" viewBox="0 0 55.3 55.2"
	 style="enable-background:new 0 0 55.3 55.2;" xml:space="preserve">
<style type="text/css">
	.st0{fill:#00A9A5;}
</style>
<g>
	<path class="st0" d="M14.5,1.2h26.3c7.3,0,13.3,5.9,13.3,13.3v26.3c0,7.3-5.9,13.3-13.3,13.3H14.5C7.2,54,1.2,48.1,1.2,40.7V14.4
		C1.2,7.1,7.2,1.2,14.5,1.2z"/>
	<path d="M10.4,35.5c0.2-1.1,1-1.6,2-1.9c0.8-0.3,1.7-0.5,2.4-1.1c1.1-0.8,1.8-2,2.2-3.3c-0.7-0.3-1.3-0.5-2-0.9
		c-1-0.5-1.5-1.3-1.5-2.4c0-1.1,0.4-1.9,1.3-2.5c0.6-0.4,1.3-0.5,2-0.3c0.1,0,0.3,0.1,0.5,0.1c0-0.6,0-1.3,0-1.9
		c0-1.6,0.3-3.1,1-4.6c1.5-2.9,3.7-4.8,6.9-5.6c3.5-0.8,6.6,0,9.3,2.4c2.3,2.1,3.5,4.7,3.5,7.8c0,0.6,0,1.2,0,1.8
		c0.7,0,1.2-0.1,1.8,0c2,0.4,2.8,3,1.4,4.5c-0.4,0.4-0.8,0.7-1.3,0.9c-0.5,0.2-1,0.4-1.5,0.6c0.6,1.8,1.6,3.3,3.4,4
		c0.6,0.2,1.1,0.4,1.7,0.6c0.8,0.3,1.4,0.9,1.4,1.9c0.1,0.9-0.4,1.6-1.1,2.1c-0.9,0.6-1.9,0.8-2.9,1c-0.3,0-0.4,0.2-0.4,0.4
		c-0.3,1.6-1.3,2.4-2.9,2.4c-0.6,0-1.2,0-1.8-0.1c-1-0.1-1.8,0.2-2.6,0.7c-0.9,0.5-1.9,1.1-2.8,1.5c-2.1,0.9-4.1,0.7-6.1-0.3
		c-0.9-0.4-1.7-0.9-2.5-1.4c-0.6-0.4-1.3-0.5-2-0.5c-0.7,0-1.5,0.1-2.2,0.1c-1.5,0-2.5-0.8-2.7-2.3c-0.1-0.3-0.2-0.5-0.5-0.5
		c-0.6-0.1-1.2-0.3-1.8-0.5c-1.1-0.4-1.8-1-2.1-2.2V35.5L10.4,35.5z M36.4,39.6C36.4,39.6,36.4,39.7,36.4,39.6
		c0.2,0,0.5,0.1,0.7,0.1c0.2,0,0.5,0,0.7,0c0.6,0,0.8-0.2,1-0.8c0.1-0.3,0.1-0.6,0.1-0.9c0.1-0.6,0.1-0.7,0.7-0.8
		c0.7-0.2,1.5-0.3,2.2-0.5c0.4-0.1,0.8-0.3,1.1-0.5c0.4-0.2,0.3-0.5-0.1-0.7c-0.4-0.2-0.8-0.3-1.2-0.4c-1.2-0.4-2.3-1.1-3.2-2.1
		c-0.9-1-1.5-2.3-1.9-3.6c-0.3-1-0.1-1.5,0.9-1.8c0.7-0.3,1.4-0.5,2-0.8c0.5-0.2,0.8-0.8,0.6-1.2s-0.6-0.6-1.2-0.5
		c-0.4,0.1-0.7,0.2-1.1,0.2c-0.9,0.2-1.5-0.2-1.5-1.1c0-0.9-0.1-1.8-0.1-2.7c0-1.2-0.2-2.3-0.7-3.4c-2.1-4.8-7.9-6.8-12.4-3.8
		c-2.3,1.5-3.6,3.7-3.9,6.5c-0.1,1.2-0.1,2.3-0.1,3.5c0,0.9-0.6,1.3-1.4,1.1c-0.4-0.1-0.9-0.2-1.3-0.3c-0.7-0.1-1.2,0.4-1,1.1
		c0.1,0.4,0.3,0.6,0.7,0.7c0.7,0.3,1.4,0.6,2.1,0.9c0.7,0.3,1,0.9,0.7,1.6c-0.2,0.6-0.4,1.1-0.6,1.7c-0.9,2.1-2.4,3.5-4.6,4.2
		c-0.4,0.1-0.8,0.3-1.2,0.4c-0.4,0.1-0.4,0.4-0.1,0.7c0.1,0.1,0.3,0.2,0.5,0.3c0.3,0.1,0.6,0.2,0.9,0.3c0.7,0.2,1.4,0.3,2.1,0.5
		c0.4,0.1,0.5,0.3,0.6,0.7c0,0.3,0,0.5,0.1,0.8c0.1,0.9,0.4,1.1,1.3,1.1c0.6,0,1.2-0.1,1.8-0.1c1,0,1.9,0.1,2.7,0.5
		c1,0.5,1.9,1.1,2.9,1.6c1.4,0.7,2.9,0.8,4.3,0.2c1-0.5,1.9-1,2.9-1.5c0.9-0.5,1.8-0.8,2.9-0.8C35.7,39.6,36,39.6,36.4,39.6
		L36.4,39.6z"/>
</g>
</svg>
